<svg width="28" height="28" viewBox="0 0 28 28" fill="none" xmlns="http://www.w3.org/2000/svg">
<path fill-rule="evenodd" clip-rule="evenodd" d="M14 24.5C19.799 24.5 24.5 19.799 24.5 14C24.5 8.20101 19.799 3.5 14 3.5C8.20101 3.5 3.5 8.20101 3.5 14C3.5 19.799 8.20101 24.5 14 24.5Z" fill="#DEBB01"/>
<path fill-rule="evenodd" clip-rule="evenodd" d="M16.7178 10.1411C17.2083 9.54811 18.1031 9.45197 18.7163 9.92635C19.3295 10.4007 19.4289 11.266 18.9384 11.859L13.2509 18.7339C12.7215 19.3739 11.7344 19.4267 11.1352 18.8473L8.29146 16.0973C7.73618 15.5603 7.73618 14.6897 8.29146 14.1527C8.84673 13.6158 9.74701 13.6158 10.3023 14.1527L12.0227 15.8164L16.7178 10.1411Z" fill="#0C2B35"/>
</svg>
