<svg width="29" height="40" viewBox="0 0 29 40" fill="none" xmlns="http://www.w3.org/2000/svg">
<path fill-rule="evenodd" clip-rule="evenodd" d="M13.1025 0.00483615C12.4382 0.0597307 11.9367 0.126434 11.3848 0.233354C11.0547 0.297291 10.3933 0.453598 10.2591 0.499348C10.2239 0.511362 10.1432 0.535749 10.0798 0.5535C9.7012 0.659601 8.92668 0.93643 8.58335 1.08838C8.52585 1.11382 8.43847 1.15068 8.38916 1.1703C8.16046 1.26126 7.21276 1.74896 6.89036 1.94162C5.83135 2.57446 5.0012 3.2231 4.11112 4.11314C3.22108 5.00321 2.57244 5.83337 1.9396 6.89238C1.74694 7.21478 1.25925 8.16248 1.16828 8.39118C1.14866 8.44049 1.1118 8.52787 1.08636 8.58537C0.934412 8.9287 0.657582 9.70322 0.551481 10.0818C0.53373 10.1452 0.509344 10.2259 0.49733 10.2611C0.399555 10.5478 0.197523 11.5042 0.116168 12.0656C0.011604 12.787 0 12.9932 0 14.1291C0 15.265 0.011604 15.4712 0.116168 16.1926C0.197523 16.754 0.399555 17.7104 0.49733 17.9971C0.509344 18.0323 0.53373 18.113 0.551481 18.1764C0.657582 18.555 0.934412 19.3295 1.08636 19.6728C1.1118 19.7304 1.14866 19.8177 1.16828 19.867C1.18791 19.9164 1.32121 20.193 1.46453 20.4818C1.84938 21.2573 2.26187 21.9282 2.7953 22.6463C3.42403 23.4928 4.02834 24.5487 4.5105 25.6434C4.5291 25.6857 4.57982 25.8125 4.62318 25.9252C4.66655 26.0379 4.71194 26.1531 4.72406 26.1813C4.82939 26.4263 5.01252 26.9807 5.13865 27.4365C5.15033 27.4788 5.17771 27.5767 5.19946 27.6542C5.37939 28.2949 5.57512 29.4576 5.63501 30.2414C5.66503 30.6342 5.81478 31.1688 5.98996 31.5085C6.19422 31.9046 6.57257 32.3336 6.95821 32.6063C7.17382 32.7588 7.60219 32.9634 7.85123 33.0329C8.32712 33.1657 8.11128 33.1613 14.1271 33.1613C20.1429 33.1613 19.9271 33.1657 20.403 33.0329C20.652 32.9634 21.0804 32.7588 21.296 32.6063C21.6816 32.3336 22.06 31.9046 22.2642 31.5085C22.4394 31.1688 22.5892 30.6342 22.6192 30.2414C22.6791 29.4576 22.8748 28.2949 23.0547 27.6542C23.0765 27.5767 23.1039 27.4788 23.1155 27.4365C23.2417 26.9807 23.4248 26.4263 23.5301 26.1813C23.5422 26.1531 23.5876 26.0379 23.631 25.9252C23.6744 25.8125 23.7251 25.6857 23.7437 25.6434C24.2213 24.559 24.8052 23.5356 25.411 22.7208C25.6967 22.3366 26.0549 21.7993 26.3144 21.3656C26.507 21.0438 26.9945 20.0968 27.0859 19.867C27.1055 19.8177 27.1424 19.7304 27.1678 19.6728C27.3198 19.3295 27.5966 18.555 27.7027 18.1764C27.7205 18.113 27.7448 18.0323 27.7569 17.9971C27.8546 17.7104 28.0567 16.754 28.138 16.1926C28.2426 15.4712 28.2542 15.265 28.2542 14.1291C28.2542 12.9932 28.2426 12.787 28.138 12.0656C28.0567 11.5042 27.8546 10.5478 27.7569 10.2611C27.7448 10.2259 27.7205 10.1452 27.7027 10.0818C27.5966 9.70322 27.3198 8.9287 27.1678 8.58537C27.1424 8.52787 27.1055 8.44049 27.0859 8.39118C26.9949 8.16248 26.5072 7.21478 26.3146 6.89238C25.6817 5.83337 25.0331 5.00321 24.1431 4.11314C23.253 3.2231 22.4228 2.57446 21.3638 1.94162C21.0414 1.74896 20.0937 1.26126 19.865 1.1703C19.8157 1.15068 19.7283 1.11382 19.6708 1.08838C19.3275 0.93643 18.553 0.659601 18.1744 0.5535C18.111 0.535749 18.0303 0.511362 17.9951 0.499348C17.7331 0.409975 16.7835 0.205894 16.2727 0.129175C15.5654 0.0229466 15.3487 0.00913947 14.2808 0.00222322C13.6961 -0.00156792 13.1659 -0.000389464 13.1025 0.00483615ZM13.5635 2.69406C12.5551 2.78128 11.9268 2.88366 11.2069 3.07809C10.844 3.17609 10.3028 3.34908 10.1656 3.41094C10.1212 3.43097 10.072 3.44734 10.0564 3.44734C10.0407 3.44734 10.0078 3.45792 9.98339 3.47085C9.93571 3.49608 9.83825 3.53897 9.48283 3.6911C8.91787 3.93291 8.02721 4.44564 7.47693 4.84583C6.40105 5.62826 5.62625 6.40306 4.84381 7.47895C4.44362 8.02923 3.93089 8.91989 3.68908 9.48484C3.53695 9.84026 3.49407 9.93773 3.46884 9.9854C3.4559 10.0099 3.44532 10.0427 3.44532 10.0584C3.44532 10.0741 3.42895 10.1232 3.40892 10.1676C3.28712 10.4378 3.02525 11.3456 2.92012 11.8621C2.7569 12.664 2.69137 13.3134 2.69137 14.1291C2.69137 14.9448 2.7569 15.5942 2.92012 16.3961C3.02525 16.9126 3.28712 17.8204 3.40892 18.0906C3.42895 18.135 3.44532 18.1842 3.44532 18.1998C3.44532 18.2155 3.4559 18.2484 3.46884 18.2728C3.49407 18.3205 3.53695 18.418 3.68908 18.7734C3.87679 19.2119 4.31582 20.0075 4.62539 20.4701C4.69178 20.5693 4.84863 20.7883 4.97397 20.9568C5.25057 21.3286 5.80376 22.171 6.05826 22.6079C6.25934 22.9531 6.67872 23.7664 6.83762 24.1193C6.93665 24.3392 7.07174 24.6595 7.13742 24.8301C7.14961 24.8618 7.1696 24.9137 7.18179 24.9454C7.22423 25.0556 7.25523 25.1317 7.29693 25.228C7.32004 25.2813 7.33899 25.339 7.33907 25.3561C7.33917 25.3732 7.355 25.4175 7.37429 25.4544C7.40913 25.5212 7.55499 25.9569 7.68196 26.3734C7.95895 27.2821 8.1973 28.5172 8.32328 29.6965C8.37305 30.1625 8.43212 30.2744 8.70936 30.428L8.81182 30.4848L10.8931 30.4926L12.9744 30.5003V24.966C12.9744 20.8538 12.9669 19.4316 12.9453 19.4316C12.8561 19.4316 12.2297 19.5769 11.9882 19.6537C11.4996 19.8089 11.1253 19.9888 10.6946 20.2752C10.4246 20.4547 10.2433 20.5059 9.87385 20.5068C9.4451 20.5079 9.18307 20.4048 8.90012 20.1235C8.66046 19.8853 8.57037 19.6689 8.56909 19.3283C8.56842 19.1456 8.59068 19.0541 8.74356 18.6119C8.86572 18.2584 8.93995 17.9109 8.99108 17.4532C9.03901 17.0243 9.03896 16.7665 8.99088 16.336C8.91628 15.6683 8.77944 15.1657 8.53199 14.6506C8.37136 14.3163 8.24543 14.1243 8.00042 13.8403C7.90226 13.7265 7.79106 13.5749 7.75333 13.5034C7.69154 13.3864 7.68473 13.3467 7.68473 13.1045C7.68473 12.8628 7.69188 12.8209 7.7553 12.6918C7.8436 12.512 8.06064 12.3038 8.2546 12.2129C8.39095 12.149 8.42684 12.1439 8.73497 12.1439C9.04772 12.1439 9.07769 12.1484 9.22741 12.2175C9.34855 12.2735 9.44107 12.3473 9.61272 12.5249C10.3729 13.3115 10.8673 14.3838 11.0811 15.7093C11.1422 16.0876 11.1751 17.2031 11.1372 17.6081C11.1175 17.8179 11.1196 17.8453 11.1545 17.8351C11.1763 17.8288 11.295 17.7939 11.4183 17.7575C11.6569 17.6871 12.3791 17.5388 12.7496 17.4841L12.9731 17.4511L12.9801 13.6064L12.9872 9.76162L13.0469 9.59609C13.13 9.36594 13.2065 9.24408 13.3738 9.07545C13.6258 8.8214 13.9529 8.71335 14.2973 8.77042C14.5296 8.80892 14.7092 8.90283 14.8804 9.07545C15.0477 9.24408 15.1242 9.36594 15.2073 9.59609L15.267 9.76162L15.274 13.6055L15.2811 17.4494L15.5174 17.4829C15.8808 17.5345 16.6119 17.6838 16.8615 17.7575C16.9848 17.7939 17.1035 17.8288 17.1253 17.8351C17.1602 17.8453 17.1623 17.8179 17.1426 17.6081C17.1047 17.2031 17.1376 16.0876 17.1987 15.7093C17.4125 14.3838 17.9069 13.3115 18.6671 12.5249C18.8387 12.3473 18.9313 12.2735 19.0524 12.2175C19.2021 12.1484 19.2321 12.1439 19.5448 12.1439C19.853 12.1439 19.8888 12.149 20.0252 12.2129C20.2192 12.3038 20.4362 12.512 20.5245 12.6918C20.5879 12.8209 20.5951 12.8628 20.5951 13.1045C20.5951 13.3467 20.5883 13.3864 20.5265 13.5034C20.4887 13.5749 20.3775 13.7265 20.2794 13.8403C20.0344 14.1243 19.9084 14.3163 19.7478 14.6506C19.5004 15.1657 19.3635 15.6683 19.2889 16.336C19.2408 16.7665 19.2408 17.0243 19.2887 17.4532C19.3398 17.9109 19.4141 18.2584 19.5362 18.6119C19.6891 19.0541 19.7114 19.1456 19.7107 19.3283C19.7094 19.6689 19.6193 19.8853 19.3797 20.1235C19.0967 20.4048 18.8347 20.5079 18.406 20.5068C18.0365 20.5059 17.8552 20.4547 17.5852 20.2752C17.1545 19.9888 16.7802 19.8089 16.2916 19.6537C16.0336 19.5717 15.4218 19.4316 15.3217 19.4316C15.2831 19.4316 15.2798 19.8601 15.2798 24.966V30.5003L17.3611 30.4926L19.4424 30.4848L19.5448 30.428C19.6906 30.3473 19.7473 30.2949 19.8243 30.1704C19.8816 30.0777 19.8979 30.0054 19.9309 29.6965C20.0569 28.5172 20.2952 27.2821 20.5722 26.3734C20.6992 25.9569 20.8451 25.5212 20.8799 25.4544C20.8992 25.4175 20.915 25.3732 20.9151 25.3561C20.9152 25.339 20.9341 25.2813 20.9573 25.228C20.9803 25.1747 21.0092 25.1051 21.0213 25.0734C21.0743 24.9349 21.0894 24.8965 21.1168 24.8301C21.1327 24.7913 21.1561 24.7337 21.1687 24.702C21.4022 24.1132 21.8435 23.2134 22.1956 22.6079C22.4415 22.1852 22.9269 21.4509 23.341 20.8752C23.8308 20.1943 24.3065 19.3775 24.5651 18.7734C24.7172 18.418 24.7601 18.3205 24.7854 18.2728C24.7983 18.2484 24.8089 18.2155 24.8089 18.1998C24.8089 18.1842 24.8252 18.135 24.8453 18.0906C24.9671 17.8204 25.2289 16.9126 25.3341 16.3961C25.4973 15.5942 25.5628 14.9448 25.5628 14.1291C25.5628 13.3134 25.4973 12.664 25.3341 11.8621C25.2289 11.3456 24.9671 10.4378 24.8453 10.1676C24.8252 10.1232 24.8089 10.0741 24.8089 10.0584C24.8089 10.0427 24.7983 10.0099 24.7854 9.9854C24.7601 9.93773 24.7172 9.84026 24.5651 9.48484C24.3233 8.91989 23.8106 8.02923 23.4104 7.47895C22.6279 6.40306 21.8531 5.62826 20.7773 4.84583C20.227 4.44564 19.3363 3.93291 18.7714 3.6911C18.4159 3.53897 18.3185 3.49608 18.2708 3.47085C18.2463 3.45792 18.2135 3.44734 18.1978 3.44734C18.1821 3.44734 18.133 3.43097 18.0886 3.41094C17.9514 3.34908 17.4102 3.17609 17.0473 3.07809C16.4683 2.92173 15.9422 2.82488 15.2162 2.74096C14.8974 2.7041 13.8056 2.67313 13.5635 2.69406ZM7.46699 33.9336C6.81817 34.0402 6.39113 34.5624 6.39113 35.2493C6.39113 35.8687 6.75693 36.382 7.30615 36.5334C7.47368 36.5796 7.71431 36.5813 14.1271 36.5813C20.5399 36.5813 20.7805 36.5796 20.948 36.5334C21.4973 36.382 21.8631 35.8687 21.8631 35.2493C21.8631 34.5496 21.4357 34.0382 20.7616 33.9313C20.5495 33.8976 7.6722 33.8999 7.46699 33.9336ZM9.95172 37.3515C9.45491 37.4591 9.05392 37.8613 8.95148 38.3548C8.90714 38.5683 8.9327 38.9535 9.00345 39.1388C9.17874 39.5978 9.56277 39.9048 10.0498 39.9753C10.1537 39.9903 11.7522 40 14.1271 40C16.502 40 18.1005 39.9903 18.2044 39.9753C18.6914 39.9048 19.0754 39.5978 19.2507 39.1388C19.3215 38.9535 19.347 38.5683 19.3027 38.3548C19.199 37.8552 18.7977 37.4572 18.2897 37.3501C18.0278 37.2948 10.2071 37.2962 9.95172 37.3515Z" fill="#DEBB01"/>
</svg>
