<?xml version="1.0" standalone="no"?>
<!DOCTYPE svg PUBLIC "-//W3C//DTD SVG 20010904//EN"
 "http://www.w3.org/TR/2001/REC-SVG-20010904/DTD/svg10.dtd">
<svg version="1.0" xmlns="http://www.w3.org/2000/svg"
 width="600.000000pt" height="600.000000pt" viewBox="0 0 600.000000 600.000000"
 preserveAspectRatio="xMidYMid meet">
<metadata>
Created by potrace 1.14, written by Peter Selinger 2001-2017
</metadata>
<g transform="translate(0.000000,600.000000) scale(0.100000,-0.100000)"
fill="#000000" stroke="none">
<path d="M0 3000 l0 -3000 3000 0 3000 0 0 3000 0 3000 -3000 0 -3000 0 0
-3000z m3188 2369 c570 -62 1058 -351 1349 -797 226 -345 299 -783 196 -1177
-56 -216 -133 -367 -296 -583 -59 -79 -126 -172 -147 -207 -124 -202 -193
-400 -225 -642 -10 -82 -23 -134 -40 -170 -33 -67 -119 -145 -193 -175 l-57
-23 -795 0 -795 0 -56 28 c-132 65 -201 165 -218 317 -37 327 -147 581 -380
878 -224 284 -334 592 -335 937 0 239 42 430 140 635 181 377 485 663 888 835
297 126 650 179 964 144z m700 -3904 c47 -28 72 -73 72 -129 0 -40 -5 -52 -38
-87 -28 -30 -49 -43 -82 -50 -59 -11 -1651 -11 -1710 0 -33 7 -54 20 -82 50
-33 35 -38 46 -38 88 0 63 28 109 83 133 41 19 71 20 902 17 840 -2 861 -2
893 -22z m-358 -375 c20 -5 51 -25 69 -44 66 -69 48 -169 -39 -220 -34 -20
-48 -21 -575 -21 -522 0 -541 1 -574 20 -47 28 -72 65 -78 116 -6 57 25 105
87 137 44 22 45 22 560 22 307 0 529 -4 550 -10z"/>
<path d="M2824 5070 c-386 -44 -741 -220 -972 -482 -171 -194 -278 -419 -313
-658 -17 -118 -7 -332 21 -444 46 -184 131 -352 260 -516 234 -296 367 -597
415 -943 22 -155 2 -147 341 -147 l274 0 0 640 c0 572 -2 640 -16 640 -49 0
-171 -38 -252 -77 -124 -62 -191 -62 -259 0 -42 38 -46 74 -17 157 35 100 43
247 20 340 -22 88 -56 155 -111 218 -53 63 -57 96 -19 141 33 39 90 56 143 41
53 -14 139 -108 185 -202 53 -108 76 -211 76 -340 0 -99 2 -109 18 -104 22 7
170 35 202 38 l25 3 5 455 c4 335 8 461 17 477 19 32 76 63 117 63 49 0 92
-24 116 -63 19 -30 20 -53 20 -473 0 -329 3 -443 12 -452 7 -7 23 -12 38 -12
23 0 115 -18 182 -35 l27 -7 -6 76 c-11 142 32 316 107 431 88 135 164 176
253 137 84 -37 91 -100 20 -183 -119 -139 -153 -342 -88 -536 31 -91 28 -129
-15 -172 -35 -34 -104 -53 -156 -41 -19 5 -66 24 -103 44 -73 38 -229 83 -255
73 -15 -6 -16 -68 -14 -639 l3 -633 273 -3 273 -2 30 29 c19 19 29 40 29 59 0
16 7 69 15 118 50 293 176 580 357 817 190 248 251 361 307 563 76 279 35 603
-112 874 -200 368 -591 638 -1037 714 -113 20 -336 28 -436 16z"/>
</g>
</svg>
